<?xml version="1.0" encoding="UTF-8" standalone="no"?>
<svg
   version="1.1"
   id="svg10561"
   width="200"
   height="200"
   viewBox="0 0 200 200"
   xmlns="http://www.w3.org/2000/svg"
   xmlns:svg="http://www.w3.org/2000/svg">
  <defs
     id="defs10565" />
  <path
     d="m 186.68645,0.00382641 h -0.70311 c -7.10049,0 -12.86408,5.75367899 -12.86408,12.86407859 v 81.4923 c -0.37632,-0.336701 -0.79224,-0.653602 -1.25768,-0.920985 L 11.798373,1.0238424 C 6.7478115,-1.8876586 0.4395605,1.7566694 0.4395605,7.5895724 V 192.41043 c 0,5.8329 6.308251,9.47723 11.3588125,6.56573 L 171.86158,106.56078 c 0.46544,-0.26738 0.88136,-0.58428 1.25768,-0.92098 v 81.49229 c 0,7.1005 5.76359,12.86408 12.86408,12.86408 h 0.70311 c 7.11041,0 12.87399,-5.76358 12.87399,-12.86408 V 12.867905 c 0,-7.1103996 -5.76358,-12.86407859 -12.87399,-12.86407859"
     style="fill:#0589f5;fill-opacity:1;fill-rule:nonzero;stroke:none;stroke-width:0.0990304"
     id="path10577" />
</svg>
