<?xml version="1.0" encoding="UTF-8" standalone="no"?>
<svg
   version="1.1"
   id="svg10561"
   width="200"
   height="200"
   viewBox="0 0 200 200"
   xmlns="http://www.w3.org/2000/svg"
   xmlns:svg="http://www.w3.org/2000/svg">
  <defs
     id="defs10565" />
  <g
     id="g10571"
     transform="matrix(0.09903063,0,0,0.09903063,0.44104159,-3.2824285e-6)">
    <path
       d="m 1895.94,2009.2386 -1616.31,-933.2 c -4.7,-2.7 -8.82,-5.9 -12.66,-9.3 v 822.9 c 0,71.8 -58.18,129.9 -129.94,129.9 h -7.09 c -71.77,0 -129.94,-58.1 -129.94,-129.9 V 129.93864 C 0,58.238642 58.17,0.0386419 129.94,0.0386419 h 7.09 c 71.76,0 129.94,58.2000001 129.94,129.8999981 v 822.89999 c 3.84,-3.4 7.96,-6.6 12.66,-9.3 L 1895.94,10.338642 c 50.99,-29.400001 114.73,7.4 114.73,66.299998 V 1942.9386 c 0,58.9 -63.74,95.7 -114.73,66.3"
       style="fill:#0589f5;fill-opacity:1;fill-rule:nonzero;stroke:none"
       id="path10575" />
  </g>
</svg>
